<?xml version="1.0" encoding="utf-8"?>
<!-- Generator: Adobe Illustrator 21.1.0, SVG Export Plug-In . SVG Version: 6.00 Build 0)  -->
<svg version="1.1" xmlns="http://www.w3.org/2000/svg" xmlns:xlink="http://www.w3.org/1999/xlink" x="0px" y="0px"
	 viewBox="0 0 595.3 841.9" style="enable-background:new 0 0 595.3 841.9;" xml:space="preserve">
<style type="text/css">
	.st0{fill:#EABFCE;}
	.st1{fill:#FFFFFF;}
	.st2{opacity:0.5;stroke:#FFFFFF;stroke-miterlimit:10;}
	.st3{opacity:0.5;}
	.st4{fill:#FFFFFF;stroke:#000000;stroke-width:2;stroke-miterlimit:10;}
	.st5{fill:#F4CCD8;}
	.st6{fill:none;stroke:#DCDDDD;stroke-width:2;stroke-miterlimit:10;}
	.st7{fill:#DCDDDD;stroke:#DCDDDD;stroke-miterlimit:10;}
	.st8{fill:#DCDDDD;stroke:#DCDDDD;stroke-width:3;stroke-miterlimit:10;}
	.st9{fill:#DCDDDD;stroke:#DCDDDD;stroke-width:2;stroke-miterlimit:10;}
	.st10{fill:none;stroke:#000000;stroke-width:2;stroke-miterlimit:10;}
</style>
<g id="图层_1">
	<g>
		<path class="st0" d="M472.8,701.5c0,24.9-20.1,45-45,45H169.5c-24.9,0-45-20.1-45-45V106.7c0-24.9,20.1-45,45-45h258.2
			c24.9,0,45,20.1,45,45V701.5z"/>
		<g>
			<path class="st1" d="M470,699.5c0,24.7-19.8,44.7-44.1,44.7H172.5c-24.4,0-44.1-20-44.1-44.7V108.7c0-24.7,19.8-44.7,44.1-44.7
				h253.3c24.4,0,44.1,20,44.1,44.7V699.5z"/>
			<g>
				<circle class="st0" cx="300.2" cy="704.1" r="28.3"/>
				<circle class="st1" cx="300.2" cy="704.1" r="25.3"/>
			</g>
			<circle class="st2" cx="299.2" cy="83" r="3.7"/>
			<circle class="st2" cx="243.8" cy="105" r="5.7"/>
			<path class="st3" d="M326.8,105.8c0,1.6-1.3,2.8-2.8,2.8h-49.7c-1.6,0-2.8-1.3-2.8-2.8l0,0c0-1.6,1.3-2.8,2.8-2.8H324
				C325.6,103,326.8,104.3,326.8,105.8L326.8,105.8z"/>
			<rect x="143.8" y="144" class="st4" width="310.5" height="520.5"/>
			<path class="st5" d="M125.3,176c0,1.3-1,2.3-2.3,2.3l0,0c-1.3,0-2.3-1-2.3-2.3v-26c0-1.3,1-2.3,2.3-2.3l0,0c1.3,0,2.3,1,2.3,2.3
				V176z"/>
			<path class="st5" d="M125.3,253.1c0,2.2-1,3.9-2.3,3.9l0,0c-1.3,0-2.3-1.7-2.3-3.9v-43.5c0-2.2,1-3.9,2.3-3.9l0,0
				c1.3,0,2.3,1.7,2.3,3.9V253.1z"/>
			<path class="st5" d="M125.3,318.1c0,2.2-1,3.9-2.3,3.9l0,0c-1.3,0-2.3-1.7-2.3-3.9v-43.5c0-2.2,1-3.9,2.3-3.9l0,0
				c1.3,0,2.3,1.7,2.3,3.9V318.1z"/>
			<path class="st5" d="M474.6,253.1c0,2.2-1,3.9-2.3,3.9l0,0c-1.3,0-2.3-1.7-2.3-3.9v-43.5c0-2.2,1-3.9,2.3-3.9l0,0
				c1.3,0,2.3,1.7,2.3,3.9V253.1z"/>
		</g>
	</g>
</g>
<g id="图层_2">
	
		<ellipse transform="matrix(0.9272 -0.3746 0.3746 0.9272 -55.8653 74.6609)" class="st6" cx="164.1" cy="181" rx="11.9" ry="11.9"/>
	<path class="st6" d="M173.9,187.8"/>
	<path class="st6" d="M152.3,181.8"/>
	<path class="st6" d="M169.2,179"/>
	<line class="st6" x1="157.5" y1="190.9" x2="165.4" y2="179.1"/>
	<line class="st6" x1="156.7" y1="171.8" x2="175.8" y2="185"/>
	<line class="st6" x1="165.4" y1="179.1" x2="166" y2="178.2"/>
	<path class="st7" d="M324.3,189.6H196.2c-3.7,0-6.8-3-6.8-6.8V180c0-3.7,3-6.8,6.8-6.8h128.1c3.7,0,6.8,3,6.8,6.8v2.8
		C331.1,186.6,328.1,189.6,324.3,189.6z"/>
	<path class="st7" d="M231.4,233.1h-35.1c-3.7,0-6.8-3-6.8-6.8v-2.8c0-3.7,3-6.8,6.8-6.8h35.1c3.7,0,6.8,3,6.8,6.8v2.8
		C238.1,230.1,235.1,233.1,231.4,233.1z"/>
	<path class="st7" d="M405.6,233.1H267c-3.7,0-6.8-3-6.8-6.8v-2.8c0-3.7,3-6.8,6.8-6.8h138.5c3.7,0,6.8,3,6.8,6.8v2.8
		C412.4,230.1,409.3,233.1,405.6,233.1z"/>
	<path class="st7" d="M405.6,262.4H196.2c-3.7,0-6.8-3-6.8-6.8v-2.8c0-3.7,3-6.8,6.8-6.8h209.4c3.7,0,6.8,3,6.8,6.8v2.8
		C412.4,259.4,409.3,262.4,405.6,262.4z"/>
	<path class="st7" d="M431,461H221.6c-3.7,0-6.8-3-6.8-6.8v-2.8c0-3.7,3-6.8,6.8-6.8H431c3.7,0,6.8,3,6.8,6.8v2.8
		C437.8,458,434.7,461,431,461z"/>
	<path class="st7" d="M375.6,190.6h-5.7c-3.7,0-6.8-3-6.8-6.8v-5.7c0-3.7,3-6.8,6.8-6.8h5.7c3.7,0,6.8,3,6.8,6.8v5.7
		C382.4,187.6,379.3,190.6,375.6,190.6z"/>
	<path class="st7" d="M405.6,190.6h-5.7c-3.7,0-6.8-3-6.8-6.8v-5.7c0-3.7,3-6.8,6.8-6.8h5.7c3.7,0,6.8,3,6.8,6.8v5.7
		C412.4,187.6,409.3,190.6,405.6,190.6z"/>
	<path class="st7" d="M435.6,190.6h-5.7c-3.7,0-6.8-3-6.8-6.8v-5.7c0-3.7,3-6.8,6.8-6.8h5.7c3.7,0,6.8,3,6.8,6.8v5.7
		C442.4,187.6,439.3,190.6,435.6,190.6z"/>
	<line class="st8" x1="143.8" y1="199.4" x2="454.2" y2="199.4"/>
	<line class="st8" x1="143.9" y1="432" x2="454.4" y2="432"/>
	<line class="st8" x1="143.8" y1="163" x2="454.2" y2="163"/>
	<path class="st7" d="M351.2,414.7H239.8c-6.6,0-12-5.4-12-12V291.3c0-6.6,5.4-12,12-12h111.3c6.6,0,12,5.4,12,12v111.3
		C363.2,409.3,357.8,414.7,351.2,414.7z"/>
	<circle class="st9" cx="177.1" cy="461.5" r="18.5"/>
	<path class="st7" d="M358.5,478.4H219.6c-2.6,0-4.7-2.1-4.7-4.7l0,0c0-2.6,2.1-4.7,4.7-4.7h138.9c2.6,0,4.7,2.1,4.7,4.7l0,0
		C363.2,476.3,361.1,478.4,358.5,478.4z"/>
	<path class="st7" d="M433.1,478.4h-57.5c-2.6,0-4.7-2.1-4.7-4.7l0,0c0-2.6,2.1-4.7,4.7-4.7h57.5c2.6,0,4.7,2.1,4.7,4.7l0,0
		C437.8,476.3,435.6,478.4,433.1,478.4z"/>
	<path class="st7" d="M432,520.1H222.6c-3.7,0-6.8-3-6.8-6.8v-2.8c0-3.7,3-6.8,6.8-6.8H432c3.7,0,6.8,3,6.8,6.8v2.8
		C438.8,517,435.7,520.1,432,520.1z"/>
	<line class="st8" x1="144.9" y1="491.1" x2="455.4" y2="491.1"/>
	<circle class="st9" cx="178.1" cy="520.6" r="18.5"/>
	<path class="st7" d="M359.5,537.4H220.6c-2.6,0-4.7-2.1-4.7-4.7l0,0c0-2.6,2.1-4.7,4.7-4.7h138.9c2.6,0,4.7,2.1,4.7,4.7l0,0
		C364.2,535.3,362.1,537.4,359.5,537.4z"/>
	<path class="st7" d="M434.1,537.4h-57.5c-2.6,0-4.7-2.1-4.7-4.7l0,0c0-2.6,2.1-4.7,4.7-4.7h57.5c2.6,0,4.7,2.1,4.7,4.7l0,0
		C438.8,535.3,436.6,537.4,434.1,537.4z"/>
	<path class="st7" d="M429.5,579.1H220.1c-3.7,0-6.8-3-6.8-6.8v-2.8c0-3.7,3-6.8,6.8-6.8h209.4c3.7,0,6.8,3,6.8,6.8v2.8
		C436.2,576.1,433.2,579.1,429.5,579.1z"/>
	<line class="st8" x1="142.4" y1="550.1" x2="452.9" y2="550.1"/>
	<line class="st8" x1="143.3" y1="609.2" x2="453.7" y2="609.2"/>
	<circle class="st9" cx="175.6" cy="579.6" r="18.5"/>
	<path class="st7" d="M356.9,596.5H218.1c-2.6,0-4.7-2.1-4.7-4.7l0,0c0-2.6,2.1-4.7,4.7-4.7h138.9c2.6,0,4.7,2.1,4.7,4.7l0,0
		C361.6,594.4,359.5,596.5,356.9,596.5z"/>
	<path class="st7" d="M431.5,596.5h-57.5c-2.6,0-4.7-2.1-4.7-4.7l0,0c0-2.6,2.1-4.7,4.7-4.7h57.5c2.6,0,4.7,2.1,4.7,4.7l0,0
		C436.2,594.4,434.1,596.5,431.5,596.5z"/>
	<path class="st9" d="M186.2,651.6h-18.5c-3.5,0-6.3-2.8-6.3-6.3v-18.5c0-3.5,2.8-6.3,6.3-6.3h18.5c3.5,0,6.3,2.8,6.3,6.3v18.5
		C192.5,648.7,189.6,651.6,186.2,651.6z"/>
	<path class="st9" d="M267.2,651.3h-18.5c-3.5,0-6.3-2.8-6.3-6.3v-18.5c0-3.5,2.8-6.3,6.3-6.3h18.5c3.5,0,6.3,2.8,6.3,6.3V645
		C273.5,648.5,270.6,651.3,267.2,651.3z"/>
	<path class="st9" d="M430,651.6h-18.5c-3.5,0-6.3-2.8-6.3-6.3v-18.5c0-3.5,2.8-6.3,6.3-6.3H430c3.5,0,6.3,2.8,6.3,6.3v18.5
		C436.3,648.7,433.5,651.6,430,651.6z"/>
	<path class="st9" d="M350.7,651.6h-18.5c-3.5,0-6.3-2.8-6.3-6.3v-18.5c0-3.5,2.8-6.3,6.3-6.3h18.5c3.5,0,6.3,2.8,6.3,6.3v18.5
		C357,648.7,354.1,651.6,350.7,651.6z"/>
</g>
<g id="图层_3">
	<rect x="143.8" y="144" class="st10" width="310.5" height="520.5"/>
</g>
</svg>
